<?xml version="1.0" standalone="no"?>
<!DOCTYPE svg PUBLIC "-//W3C//DTD SVG 20010904//EN"
 "http://www.w3.org/TR/2001/REC-SVG-20010904/DTD/svg10.dtd">
<svg version="1.0" xmlns="http://www.w3.org/2000/svg"
 width="700.000000pt" height="700.000000pt" viewBox="0 0 700.000000 700.000000"
 preserveAspectRatio="xMidYMid meet">
<metadata>
Created by potrace 1.14, written by Peter Selinger 2001-2017
</metadata>
<g transform="translate(0.000000,700.000000) scale(0.100000,-0.100000)"
fill="#000000" stroke="none">
<path d="M3478 6565 c-2 -2 -28 -5 -58 -5 -49 -2 -180 -19 -264 -35 -69 -14
-272 -88 -351 -130 -391 -204 -683 -567 -786 -975 -11 -47 -23 -98 -26 -115
-2 -16 -8 -56 -13 -89 -5 -32 -10 -281 -10 -554 0 -273 -2 -497 -4 -499 -2 -2
-30 -6 -62 -9 -380 -33 -685 -291 -785 -664 l-23 -85 0 -1100 c-1 -1210 -3
-1161 61 -1317 122 -302 402 -514 718 -544 39 -4 783 -7 1655 -7 1759 0 1662
-4 1830 65 222 91 409 285 489 505 56 152 55 124 56 1285 l1 1077 -22 101
c-48 214 -170 398 -348 525 -123 88 -293 150 -433 158 -35 2 -65 6 -68 8 -2 3
-5 228 -6 500 0 272 -5 521 -10 554 -5 33 -11 75 -13 93 -14 95 -70 269 -123
382 -124 264 -358 516 -618 667 -199 116 -434 187 -657 199 -57 3 -108 7 -115
9 -6 2 -13 2 -15 0z m166 -449 c404 -51 766 -352 895 -745 49 -150 53 -205 55
-714 0 -264 -2 -484 -6 -490 -8 -13 -2155 -18 -2173 -6 -11 8 -12 917 -1 1002
47 374 283 697 629 861 91 43 230 82 325 92 37 3 68 7 69 8 5 4 153 -2 207 -8z
m1478 -2407 c153 -33 279 -151 329 -307 17 -54 18 -120 18 -1097 0 -663 -3
-1056 -10 -1084 -37 -162 -186 -310 -339 -337 -25 -4 -751 -8 -1613 -9 -1188
0 -1583 2 -1628 12 -162 33 -301 169 -338 334 -7 28 -10 421 -11 1079 0 831 3
1045 14 1085 40 152 152 268 304 315 54 17 154 18 1644 18 935 0 1605 -4 1630
-9z"/>
</g>
</svg>
